<svg width="30" height="30" viewBox="0 0 30 30" fill="none" xmlns="http://www.w3.org/2000/svg">
<rect width="30" height="30" rx="6" fill="url(#paint0_linear_73_9)"/>
<path d="M8.68768 15.7979C8.68768 15.362 8.79347 14.9642 9.00506 14.6045C9.22088 14.2448 9.50864 13.9591 9.86834 13.7476C10.228 13.5317 10.6258 13.4238 11.0617 13.4238H12.4963C12.9321 13.4238 13.3299 13.5317 13.6896 13.7476C14.0493 13.9591 14.335 14.2448 14.5466 14.6045C14.7624 14.9642 14.8703 15.362 14.8703 15.7979V17.626C14.8703 18.0618 14.7624 18.4596 14.5466 18.8193C14.335 19.179 14.0493 19.4668 13.6896 19.6826C13.3299 19.8942 12.9321 20 12.4963 20H11.0617C10.6258 20 10.228 19.8942 9.86834 19.6826C9.50864 19.4668 9.22088 19.179 9.00506 18.8193C8.79347 18.4596 8.68768 18.0618 8.68768 17.626V15.7979ZM10.027 17.6133C10.027 17.901 10.1286 18.1486 10.3317 18.356C10.5348 18.5591 10.7782 18.6606 11.0617 18.6606H12.4963C12.784 18.6606 13.0274 18.5591 13.2262 18.356C13.4294 18.1486 13.5309 17.901 13.5309 17.6133V15.8105C13.5309 15.5228 13.4294 15.2773 13.2262 15.0742C13.0274 14.8669 12.784 14.7632 12.4963 14.7632H11.0617C10.7782 14.7632 10.5348 14.8669 10.3317 15.0742C10.1286 15.2773 10.027 15.5228 10.027 15.8105V17.6133ZM14.4468 15.7979C14.4468 15.362 14.5526 14.9642 14.7642 14.6045C14.98 14.2448 15.2677 13.9591 15.6274 13.7476C15.9871 13.5317 16.3849 13.4238 16.8208 13.4238H18.2554C18.6912 13.4238 19.089 13.5317 19.4487 13.7476C19.8084 13.9591 20.0941 14.2448 20.3057 14.6045C20.5215 14.9642 20.6294 15.362 20.6294 15.7979V17.626C20.6294 18.0618 20.5215 18.4596 20.3057 18.8193C20.0941 19.179 19.8084 19.4668 19.4487 19.6826C19.089 19.8942 18.6912 20 18.2554 20H16.8208C16.3849 20 15.9871 19.8942 15.6274 19.6826C15.2677 19.4668 14.98 19.179 14.7642 18.8193C14.5526 18.4596 14.4468 18.0618 14.4468 17.626V15.7979ZM15.7861 17.6133C15.7861 17.901 15.8877 18.1486 16.0908 18.356C16.2939 18.5591 16.5373 18.6606 16.8208 18.6606H18.2554C18.5431 18.6606 18.7865 18.5591 18.9854 18.356C19.1885 18.1486 19.29 17.901 19.29 17.6133V15.8105C19.29 15.5228 19.1885 15.2773 18.9854 15.0742C18.7865 14.8669 18.5431 14.7632 18.2554 14.7632H16.8208C16.5373 14.7632 16.2939 14.8669 16.0908 15.0742C15.8877 15.2773 15.7861 15.5228 15.7861 15.8105V17.6133ZM20.2059 14.7632C20.2059 14.395 20.3371 14.0798 20.5994 13.8174C20.8618 13.555 21.1771 13.4238 21.5452 13.4238H23.8748C24.3107 13.4238 24.7085 13.5317 25.0682 13.7476C25.4279 13.9591 25.7135 14.2427 25.9251 14.5981C26.1409 14.9536 26.2488 15.3493 26.2488 15.7852V17.626C26.2488 18.0618 26.1409 18.4596 25.9251 18.8193C25.7135 19.179 25.4279 19.4668 25.0682 19.6826C24.7085 19.8942 24.3107 20 23.8748 20H22.307V18.6606H23.8748C24.1626 18.6606 24.4059 18.5591 24.6048 18.356C24.8079 18.1486 24.9095 17.901 24.9095 17.6133V15.7979C24.9095 15.5101 24.8079 15.2668 24.6048 15.0679C24.4059 14.8647 24.1626 14.7632 23.8748 14.7632H21.5452V22.4502H20.2059V14.7632Z" fill="url(#paint1_radial_73_9)"/>
<path d="M3.81982 10.9736H5.15283V17.4736C5.15283 17.8037 5.26921 18.0851 5.50195 18.3179C5.7347 18.5506 6.014 18.667 6.33984 18.667H10.8149V20H6.33984C5.87858 20 5.4554 19.8879 5.07031 19.6636C4.68945 19.4351 4.38477 19.1304 4.15625 18.7495C3.93197 18.3644 3.81982 17.9391 3.81982 17.4736V10.9736Z" fill="url(#paint2_radial_73_9)"/>
<defs>
<linearGradient id="paint0_linear_73_9" x1="15" y1="0" x2="15" y2="30" gradientUnits="userSpaceOnUse">
<stop stop-color="#9BD5FF"/>
<stop offset="1" stop-color="#0081FA"/>
</linearGradient>
<radialGradient id="paint1_radial_73_9" cx="0" cy="0" r="1" gradientUnits="userSpaceOnUse" gradientTransform="translate(17.5 15) rotate(90) scale(15 12.5)">
<stop stop-color="white"/>
<stop offset="1" stop-color="#D3D3D3"/>
</radialGradient>
<radialGradient id="paint2_radial_73_9" cx="0" cy="0" r="1" gradientUnits="userSpaceOnUse" gradientTransform="translate(7 15) rotate(90) scale(15 6)">
<stop stop-color="white"/>
<stop offset="1" stop-color="#D3D3D3"/>
</radialGradient>
</defs>
</svg>
