<svg id="visual" viewBox="0 0 540 960" width="540" height="960" xmlns="http://www.w3.org/2000/svg" xmlns:xlink="http://www.w3.org/1999/xlink" version="1.1"><rect x="0" y="0" width="540" height="960" fill="#369bfb"></rect><defs><linearGradient id="grad1_0" x1="0%" y1="0%" x2="100%" y2="100%"><stop offset="30%" stop-color="#ffffff" stop-opacity="1"></stop><stop offset="70%" stop-color="#ffffff" stop-opacity="1"></stop></linearGradient></defs><defs><linearGradient id="grad1_1" x1="0%" y1="0%" x2="100%" y2="100%"><stop offset="30%" stop-color="#ffffff" stop-opacity="1"></stop><stop offset="70%" stop-color="#e9f0ff" stop-opacity="1"></stop></linearGradient></defs><defs><linearGradient id="grad1_2" x1="0%" y1="0%" x2="100%" y2="100%"><stop offset="30%" stop-color="#d3e1ff" stop-opacity="1"></stop><stop offset="70%" stop-color="#e9f0ff" stop-opacity="1"></stop></linearGradient></defs><defs><linearGradient id="grad1_3" x1="0%" y1="0%" x2="100%" y2="100%"><stop offset="30%" stop-color="#d3e1ff" stop-opacity="1"></stop><stop offset="70%" stop-color="#bbd2fe" stop-opacity="1"></stop></linearGradient></defs><defs><linearGradient id="grad1_4" x1="0%" y1="0%" x2="100%" y2="100%"><stop offset="30%" stop-color="#a2c4fe" stop-opacity="1"></stop><stop offset="70%" stop-color="#bbd2fe" stop-opacity="1"></stop></linearGradient></defs><defs><linearGradient id="grad1_5" x1="0%" y1="0%" x2="100%" y2="100%"><stop offset="30%" stop-color="#a2c4fe" stop-opacity="1"></stop><stop offset="70%" stop-color="#86b6fd" stop-opacity="1"></stop></linearGradient></defs><defs><linearGradient id="grad1_6" x1="0%" y1="0%" x2="100%" y2="100%"><stop offset="30%" stop-color="#66a8fc" stop-opacity="1"></stop><stop offset="70%" stop-color="#86b6fd" stop-opacity="1"></stop></linearGradient></defs><defs><linearGradient id="grad1_7" x1="0%" y1="0%" x2="100%" y2="100%"><stop offset="30%" stop-color="#66a8fc" stop-opacity="1"></stop><stop offset="70%" stop-color="#369bfb" stop-opacity="1"></stop></linearGradient></defs><defs><linearGradient id="grad2_0" x1="0%" y1="0%" x2="100%" y2="100%"><stop offset="30%" stop-color="#ffffff" stop-opacity="1"></stop><stop offset="70%" stop-color="#ffffff" stop-opacity="1"></stop></linearGradient></defs><defs><linearGradient id="grad2_1" x1="0%" y1="0%" x2="100%" y2="100%"><stop offset="30%" stop-color="#e9f0ff" stop-opacity="1"></stop><stop offset="70%" stop-color="#ffffff" stop-opacity="1"></stop></linearGradient></defs><defs><linearGradient id="grad2_2" x1="0%" y1="0%" x2="100%" y2="100%"><stop offset="30%" stop-color="#e9f0ff" stop-opacity="1"></stop><stop offset="70%" stop-color="#d3e1ff" stop-opacity="1"></stop></linearGradient></defs><defs><linearGradient id="grad2_3" x1="0%" y1="0%" x2="100%" y2="100%"><stop offset="30%" stop-color="#bbd2fe" stop-opacity="1"></stop><stop offset="70%" stop-color="#d3e1ff" stop-opacity="1"></stop></linearGradient></defs><defs><linearGradient id="grad2_4" x1="0%" y1="0%" x2="100%" y2="100%"><stop offset="30%" stop-color="#bbd2fe" stop-opacity="1"></stop><stop offset="70%" stop-color="#a2c4fe" stop-opacity="1"></stop></linearGradient></defs><defs><linearGradient id="grad2_5" x1="0%" y1="0%" x2="100%" y2="100%"><stop offset="30%" stop-color="#86b6fd" stop-opacity="1"></stop><stop offset="70%" stop-color="#a2c4fe" stop-opacity="1"></stop></linearGradient></defs><defs><linearGradient id="grad2_6" x1="0%" y1="0%" x2="100%" y2="100%"><stop offset="30%" stop-color="#86b6fd" stop-opacity="1"></stop><stop offset="70%" stop-color="#66a8fc" stop-opacity="1"></stop></linearGradient></defs><defs><linearGradient id="grad2_7" x1="0%" y1="0%" x2="100%" y2="100%"><stop offset="30%" stop-color="#369bfb" stop-opacity="1"></stop><stop offset="70%" stop-color="#66a8fc" stop-opacity="1"></stop></linearGradient></defs><g transform="translate(540, 0)"><path d="M0 486C-61.7 467.1 -123.3 448.2 -173.4 418.5C-223.4 388.8 -261.8 348.3 -310.4 310.4C-359.1 272.5 -418 237.3 -449 186C-480 134.7 -483 67.3 -486 0L0 0Z" fill="#51a2fc"></path><path d="M0 425.3C-54 408.7 -107.9 392.2 -151.7 366.2C-195.5 340.2 -229 304.8 -271.6 271.6C-314.2 238.5 -365.8 207.6 -392.9 162.7C-420 117.9 -422.6 58.9 -425.2 0L0 0Z" fill="#77affc"></path><path d="M0 364.5C-46.2 350.3 -92.5 336.2 -130 313.9C-167.5 291.6 -196.3 261.2 -232.8 232.8C-269.3 204.4 -313.5 178 -336.8 139.5C-360 101 -362.2 50.5 -364.5 0L0 0Z" fill="#95bdfd"></path><path d="M0 303.8C-38.5 291.9 -77.1 280.1 -108.3 261.6C-139.6 243 -163.6 217.7 -194 194C-224.4 170.3 -261.3 148.3 -280.6 116.2C-300 84.2 -301.9 42.1 -303.7 0L0 0Z" fill="#afcbfe"></path><path d="M0 243C-30.8 233.6 -61.7 224.1 -86.7 209.3C-111.7 194.4 -130.9 174.2 -155.2 155.2C-179.5 136.3 -209 118.6 -224.5 93C-240 67.3 -241.5 33.7 -243 0L0 0Z" fill="#c7dafe"></path><path d="M0 182.3C-23.1 175.2 -46.2 168.1 -65 156.9C-83.8 145.8 -98.2 130.6 -116.4 116.4C-134.7 102.2 -156.8 89 -168.4 69.7C-180 50.5 -181.1 25.3 -182.2 0L0 0Z" fill="#dee8ff"></path><path d="M0 121.5C-15.4 116.8 -30.8 112.1 -43.3 104.6C-55.8 97.2 -65.4 87.1 -77.6 77.6C-89.8 68.1 -104.5 59.3 -112.3 46.5C-120 33.7 -120.7 16.8 -121.5 0L0 0Z" fill="#f4f7ff"></path><path d="M0 60.8C-7.7 58.4 -15.4 56 -21.7 52.3C-27.9 48.6 -32.7 43.5 -38.8 38.8C-44.9 34.1 -52.3 29.7 -56.1 23.2C-60 16.8 -60.4 8.4 -60.7 0L0 0Z" fill="#ffffff"></path></g><g transform="translate(0, 960)"><path d="M0 -486C53.1 -446.3 106.1 -406.6 157.3 -379.7C208.5 -352.8 257.7 -338.6 310.4 -310.4C363.1 -282.2 419.2 -240.1 449 -186C478.8 -131.9 482.4 -66 486 0L0 0Z" fill="#51a2fc"></path><path d="M0 -425.2C46.4 -390.5 92.8 -355.8 137.6 -332.3C182.4 -308.7 225.5 -296.3 271.6 -271.6C317.7 -247 366.8 -210 392.9 -162.7C419 -115.4 422.1 -57.7 425.3 0L0 0Z" fill="#77affc"></path><path d="M0 -364.5C39.8 -334.7 79.6 -305 118 -284.8C156.3 -264.6 193.3 -254 232.8 -232.8C272.3 -211.7 314.4 -180 336.8 -139.5C359.1 -98.9 361.8 -49.5 364.5 0L0 0Z" fill="#95bdfd"></path><path d="M0 -303.7C33.2 -279 66.3 -254.2 98.3 -237.3C130.3 -220.5 161.1 -211.6 194 -194C226.9 -176.4 262 -150 280.6 -116.2C299.3 -82.4 301.5 -41.2 303.8 0L0 0Z" fill="#afcbfe"></path><path d="M0 -243C26.5 -223.2 53.1 -203.3 78.6 -189.9C104.2 -176.4 128.9 -169.3 155.2 -155.2C181.6 -141.1 209.6 -120 224.5 -93C239.4 -66 241.2 -33 243 0L0 0Z" fill="#c7dafe"></path><path d="M0 -182.2C19.9 -167.4 39.8 -152.5 59 -142.4C78.2 -132.3 96.7 -127 116.4 -116.4C136.2 -105.8 157.2 -90 168.4 -69.7C179.6 -49.5 180.9 -24.7 182.3 0L0 0Z" fill="#dee8ff"></path><path d="M0 -121.5C13.3 -111.6 26.5 -101.7 39.3 -94.9C52.1 -88.2 64.4 -84.7 77.6 -77.6C90.8 -70.6 104.8 -60 112.3 -46.5C119.7 -33 120.6 -16.5 121.5 0L0 0Z" fill="#f4f7ff"></path><path d="M0 -60.7C6.6 -55.8 13.3 -50.8 19.7 -47.5C26.1 -44.1 32.2 -42.3 38.8 -38.8C45.4 -35.3 52.4 -30 56.1 -23.2C59.9 -16.5 60.3 -8.2 60.8 0L0 0Z" fill="#ffffff"></path></g></svg>