<svg width="38" height="20" viewBox="0 0 38 20" fill="none" xmlns="http://www.w3.org/2000/svg">
<path d="M8.94258 9.53516C8.94258 8.86458 9.10534 8.2526 9.43086 7.69922C9.76289 7.14583 10.2056 6.70638 10.759 6.38086C11.3124 6.04883 11.9243 5.88281 12.5949 5.88281H14.802C15.4725 5.88281 16.0845 6.04883 16.6379 6.38086C17.1913 6.70638 17.6307 7.14583 17.9563 7.69922C18.2883 8.2526 18.4543 8.86458 18.4543 9.53516V12.3477C18.4543 13.0182 18.2883 13.6302 17.9563 14.1836C17.6307 14.737 17.1913 15.1797 16.6379 15.5117C16.0845 15.8372 15.4725 16 14.802 16H12.5949C11.9243 16 11.3124 15.8372 10.759 15.5117C10.2056 15.1797 9.76289 14.737 9.43086 14.1836C9.10534 13.6302 8.94258 13.0182 8.94258 12.3477V9.53516ZM11.0031 12.3281C11.0031 12.7708 11.1594 13.1517 11.4719 13.4707C11.7844 13.7832 12.1587 13.9395 12.5949 13.9395H14.802C15.2447 13.9395 15.619 13.7832 15.925 13.4707C16.2375 13.1517 16.3938 12.7708 16.3938 12.3281V9.55469C16.3938 9.11198 16.2375 8.73438 15.925 8.42188C15.619 8.10286 15.2447 7.94336 14.802 7.94336H12.5949C12.1587 7.94336 11.7844 8.10286 11.4719 8.42188C11.1594 8.73438 11.0031 9.11198 11.0031 9.55469V12.3281ZM17.8027 9.53516C17.8027 8.86458 17.9655 8.2526 18.291 7.69922C18.623 7.14583 19.0658 6.70638 19.6191 6.38086C20.1725 6.04883 20.7845 5.88281 21.4551 5.88281H23.6621C24.3327 5.88281 24.9447 6.04883 25.498 6.38086C26.0514 6.70638 26.4909 7.14583 26.8164 7.69922C27.1484 8.2526 27.3145 8.86458 27.3145 9.53516V12.3477C27.3145 13.0182 27.1484 13.6302 26.8164 14.1836C26.4909 14.737 26.0514 15.1797 25.498 15.5117C24.9447 15.8372 24.3327 16 23.6621 16H21.4551C20.7845 16 20.1725 15.8372 19.6191 15.5117C19.0658 15.1797 18.623 14.737 18.291 14.1836C17.9655 13.6302 17.8027 13.0182 17.8027 12.3477V9.53516ZM19.8633 12.3281C19.8633 12.7708 20.0195 13.1517 20.332 13.4707C20.6445 13.7832 21.0189 13.9395 21.4551 13.9395H23.6621C24.1048 13.9395 24.4792 13.7832 24.7852 13.4707C25.0977 13.1517 25.2539 12.7708 25.2539 12.3281V9.55469C25.2539 9.11198 25.0977 8.73438 24.7852 8.42188C24.4792 8.10286 24.1048 7.94336 23.6621 7.94336H21.4551C21.0189 7.94336 20.6445 8.10286 20.332 8.42188C20.0195 8.73438 19.8633 9.11198 19.8633 9.55469V12.3281ZM26.6629 7.94336C26.6629 7.37695 26.8647 6.89193 27.2684 6.48828C27.672 6.08464 28.157 5.88281 28.7234 5.88281H32.3074C32.978 5.88281 33.59 6.04883 34.1434 6.38086C34.6967 6.70638 35.1362 7.14258 35.4617 7.68945C35.7938 8.23633 35.9598 8.84505 35.9598 9.51562V12.3477C35.9598 13.0182 35.7938 13.6302 35.4617 14.1836C35.1362 14.737 34.6967 15.1797 34.1434 15.5117C33.59 15.8372 32.978 16 32.3074 16H29.8953V13.9395H32.3074C32.7501 13.9395 33.1245 13.7832 33.4305 13.4707C33.743 13.1517 33.8992 12.7708 33.8992 12.3281V9.53516C33.8992 9.09245 33.743 8.7181 33.4305 8.41211C33.1245 8.09961 32.7501 7.94336 32.3074 7.94336H28.7234V19.7695H26.6629V7.94336Z" fill="url(#paint0_radial_45_4)"/>
<path d="M1.60742 2.11328H3.6582V12.1133C3.6582 12.6211 3.83724 13.054 4.19531 13.4121C4.55339 13.7702 4.98307 13.9492 5.48438 13.9492H12.3691V16H5.48438C4.77474 16 4.1237 15.8275 3.53125 15.4824C2.94531 15.1309 2.47656 14.6621 2.125 14.0762C1.77995 13.4837 1.60742 12.8294 1.60742 12.1133V2.11328Z" fill="url(#paint1_radial_45_4)"/>
<defs>
<radialGradient id="paint0_radial_45_4" cx="0" cy="0" r="1" gradientUnits="userSpaceOnUse" gradientTransform="translate(22.5 9.47368) rotate(90) scale(9.47368 15.5)">
<stop stop-color="white"/>
<stop offset="1" stop-color="#0081FA"/>
</radialGradient>
<radialGradient id="paint1_radial_45_4" cx="0" cy="0" r="1" gradientUnits="userSpaceOnUse" gradientTransform="translate(6.5 9.5) rotate(90) scale(9.5 6.5)">
<stop stop-color="white"/>
<stop offset="1" stop-color="#0081FA"/>
</radialGradient>
</defs>
</svg>
